<?xml version="1.0" encoding="UTF-8"?>
<svg id="b" data-name="Layer 2" xmlns="http://www.w3.org/2000/svg" width="342.017" height="161.5" viewBox="0 0 342.017 161.5">
  <g id="c" data-name="Layer 1">
    <g>
      <polygon points="71.386 119.219 71.386 44.716 95.074 44.716 95.074 30.325 29.868 30.325 29.868 44.716 53.556 44.716 53.556 119.219 71.386 119.219" fill="#191919"/>
      <path d="M164.228,119.219V48.664h-17.957v10.061c-2.378-3.226-5.54-5.9-9.488-8.023-3.948-2.121-8.555-3.184-13.818-3.184-6.03,0-11.484,1.486-16.365,4.458-4.883,2.973-8.746,7.217-11.589,12.735-2.846,5.52-4.267,11.844-4.267,18.976,0,7.217,1.421,13.607,4.267,19.167,2.844,5.562,6.706,9.87,11.589,12.927,4.881,3.057,10.294,4.584,16.238,4.584,5.263,0,9.912-1.083,13.945-3.248,4.032-2.165,7.196-4.903,9.488-8.214v10.316h17.957ZM143.724,95.085c-1.699,3.1-3.992,5.476-6.877,7.132-2.888,1.656-5.986,2.483-9.297,2.483-3.228,0-6.262-.848-9.105-2.547-2.846-1.698-5.138-4.139-6.877-7.323-1.741-3.184-2.611-6.897-2.611-11.144s.87-7.916,2.611-11.016c1.739-3.099,4.012-5.455,6.813-7.068,2.802-1.612,5.858-2.42,9.169-2.42s6.41.828,9.297,2.483c2.885,1.656,5.178,4.034,6.877,7.132,1.697,3.101,2.547,6.814,2.547,11.144s-.85,8.045-2.547,11.144Z" fill="#191919"/>
      <path d="M203.771,104.318c-1.91,1.359-4.564,2.038-7.959,2.038-3.482,0-6.391-.892-8.725-2.675-2.336-1.783-3.673-4.031-4.012-6.75h-17.957c.255,4.33,1.719,8.278,4.394,11.844,2.674,3.566,6.304,6.39,10.889,8.469s9.762,3.12,15.537,3.12c5.604,0,10.508-.913,14.709-2.738,4.203-1.825,7.43-4.35,9.68-7.578,2.248-3.226,3.375-6.877,3.375-10.953-.086-4.668-1.338-8.425-3.756-11.271-2.42-2.844-5.287-4.945-8.598-6.304-3.311-1.357-7.514-2.674-12.607-3.948-5.012-1.273-8.705-2.525-11.08-3.757-2.379-1.23-3.566-3.035-3.566-5.413,0-2.121.869-3.777,2.611-4.967,1.738-1.188,4.223-1.783,7.449-1.783,3.48,0,6.262.828,8.342,2.483,2.08,1.656,3.248,3.885,3.502,6.687h17.066c-.51-7.132-3.27-12.799-8.277-17.002-5.012-4.203-11.717-6.304-20.123-6.304-5.689,0-10.634.935-14.837,2.802-4.203,1.869-7.43,4.416-9.679,7.641-2.251,3.228-3.375,6.794-3.375,10.698,0,4.756,1.21,8.533,3.629,11.334,2.42,2.802,5.305,4.883,8.66,6.24,3.353,1.359,7.662,2.675,12.927,3.948,5.094,1.359,8.807,2.611,11.143,3.757,2.334,1.146,3.502,2.866,3.502,5.158,0,2.123-.955,3.864-2.865,5.222Z" fill="#191919"/>
      <polygon points="290.311 48.664 267.132 48.664 243.443 78.592 243.443 24.976 225.613 24.976 225.613 119.219 243.443 119.219 243.443 89.163 267.387 119.219 290.565 119.219 259.235 84.068 290.311 48.664" fill="#191919"/>
      <path d="M338.26,87.826c-2.42-2.844-5.286-4.945-8.597-6.304-3.312-1.357-7.515-2.674-12.608-3.948-5.011-1.273-8.704-2.525-11.08-3.757-2.378-1.23-3.565-3.035-3.565-5.413,0-2.121.869-3.777,2.61-4.967,1.739-1.188,4.223-1.783,7.45-1.783,3.48,0,6.261.828,8.342,2.483,2.079,1.656,3.248,3.885,3.502,6.687h17.066c-.51-7.132-3.27-12.799-8.278-17.002-5.011-4.203-11.717-6.304-20.122-6.304-5.689,0-10.635.935-14.837,2.802-4.203,1.869-7.431,4.416-9.68,7.641-2.25,3.228-3.375,6.794-3.375,10.698,0,4.756,1.21,8.533,3.63,11.334s5.306,4.883,8.66,6.24c3.354,1.359,7.661,2.675,12.927,3.948,5.095,1.359,8.808,2.611,11.144,3.757,2.334,1.146,3.502,2.866,3.502,5.158,0,2.123-.955,3.864-2.865,5.222-1.91,1.359-4.564,2.038-7.96,2.038-3.482,0-6.39-.892-8.724-2.675-2.336-1.783-3.673-4.031-4.012-6.75h-17.957c.255,4.33,1.72,8.278,4.394,11.844,2.675,3.566,6.305,6.39,10.89,8.469,4.584,2.08,9.762,3.12,15.537,3.12,5.604,0,10.507-.913,14.709-2.738,4.203-1.825,7.429-4.35,9.68-7.578,2.248-3.226,3.375-6.877,3.375-10.953-.086-4.668-1.338-8.425-3.757-11.271Z" fill="#191919"/>
      <path d="M231.5,132.67c0,3.02-1.25,5.758-3.278,7.706l-.013-.013-.298.298c-1.605,1.424-3.646,2.377-5.929,2.621-.377.032-.76.058-1.152.058H28.83c-5.883,0-10.67-4.787-10.67-10.67V16.67c0-.392.026-.775.057-1.151.231-2.158,1.097-4.098,2.393-5.661l1.387-1.388c1.857-1.544,4.238-2.47,6.832-2.47h192c5.884,0,10.67,4.787,10.67,10.67v4.44h6v-4.44c0-9.192-7.479-16.67-16.67-16.67H28.83c-4.125,0-7.908,1.499-10.831,3.992l-.004-.004-.043.043c-.625.537-1.206,1.122-1.745,1.746l-10.386,10.392c-3.577,3.067-5.821,7.608-5.821,12.66v104.29c0,15.649,12.731,28.38,28.38,28.38h180.29c4.884,0,9.296-2.092,12.356-5.462l10.965-10.972c3.397-3.061,5.508-7.49,5.508-12.396v-4.44h-6v4.44Z" fill="#191919"/>
    </g>
  </g>
</svg>